<svg xmlns="http://www.w3.org/2000/svg" viewBox="0 0 1172.428 130.340" width="1172.428" height="130.340" fill="none">
<rect width="1172.428" height="130.340" fill="#0b0b0c"/>
<path d="M74.77000000000001 100.67Q61.97 100.67 53.32 96.72Q44.67 92.77 40.269999999999996 84.87Q35.87 76.97 35.87 65.07Q35.87 47.669999999999995 45.87 38.61999999999999Q55.87 29.569999999999993 74.87 29.569999999999993Q85.37 29.569999999999993 93.47 32.919999999999995Q101.57 36.269999999999996 106.12 42.62Q110.67000000000002 48.97 110.67000000000002 57.97H91.97Q91.97 53.56999999999999 89.82 50.47Q87.67 47.37 83.82 45.72Q79.97 44.06999999999999 74.67 44.06999999999999Q68.27 44.06999999999999 64.02 46.419999999999995Q59.769999999999996 48.769999999999996 57.67 53.12Q55.57 57.47 55.57 63.37V66.77Q55.57 72.67 57.67 77.02000000000001Q59.769999999999996 81.37 63.97 83.77000000000001Q68.17 86.17 74.47 86.17Q80.17 86.17 84.22 84.57Q88.27000000000001 82.97 90.42 79.92Q92.57 76.87 92.57 72.57H110.67000000000002Q110.67000000000002 81.37 106.27000000000001 87.67Q101.87 93.97 93.82000000000001 97.32Q85.77000000000001 100.67 74.77000000000001 100.67Z" fill="#ffffff"/>
<path d="M160.07 100.67Q147.57 100.67 138.47 96.57Q129.37 92.47 124.47 84.57Q119.57 76.67 119.57 65.07Q119.57 53.47 124.47 45.56999999999999Q129.37 37.669999999999995 138.47 33.61999999999999Q147.57 29.569999999999993 160.07 29.569999999999993Q172.76999999999998 29.569999999999993 181.82 33.61999999999999Q190.87 37.669999999999995 195.77 45.56999999999999Q200.67000000000002 53.47 200.67000000000002 65.07Q200.67000000000002 76.67 195.77 84.57Q190.87 92.47 181.82 96.57Q172.76999999999998 100.67 160.07 100.67ZM160.07 86.17Q164.97 86.17 168.82 84.82Q172.67 83.47 175.42 80.97Q178.17 78.47 179.62 74.87Q181.07 71.27 181.07 66.77V63.37Q181.07 58.87 179.62 55.269999999999996Q178.17 51.669999999999995 175.42 49.169999999999995Q172.67 46.669999999999995 168.82 45.36999999999999Q164.97 44.06999999999999 160.07 44.06999999999999Q155.26999999999998 44.06999999999999 151.37 45.36999999999999Q147.47 46.669999999999995 144.76999999999998 49.169999999999995Q142.07 51.669999999999995 140.67 55.269999999999996Q139.26999999999998 58.87 139.26999999999998 63.37V66.77Q139.26999999999998 71.27 140.67 74.87Q142.07 78.47 144.76999999999998 80.97Q147.47 83.47 151.37 84.82Q155.26999999999998 86.17 160.07 86.17Z" fill="#ffffff"/>
<path d="M212.67000000000002 99.47V30.769999999999996H241.57000000000002L251.67000000000002 60.97Q252.27 62.669999999999995 253.12 65.47Q253.97000000000003 68.27 254.82000000000002 71.22Q255.67000000000002 74.17 256.27000000000004 76.47H256.97Q257.57000000000005 74.47 258.32000000000005 71.77Q259.07000000000005 69.07 259.9200000000001 66.16999999999999Q260.77000000000004 63.269999999999996 261.47 60.97L271.57000000000005 30.769999999999996H299.77000000000004V99.47H280.87V67.07Q280.87 63.87 280.92 60.37Q280.97 56.87 281.07000000000005 53.81999999999999Q281.17 50.769999999999996 281.27000000000004 49.06999999999999H280.47Q279.97 50.769999999999996 279.22 53.519999999999996Q278.47 56.269999999999996 277.67 59.06999999999999Q276.87 61.87 276.17 63.87L263.97 99.47H247.37L235.17000000000002 63.87Q234.37 61.57 233.52 58.81999999999999Q232.67000000000002 56.06999999999999 232.02 53.47Q231.37 50.87 230.87 49.06999999999999H230.07000000000002Q230.17000000000002 51.06999999999999 230.22000000000003 54.11999999999999Q230.27 57.169999999999995 230.37 60.56999999999999Q230.47000000000003 63.97 230.47000000000003 67.07V99.47Z" fill="#ffffff"/>
<path d="M314.77000000000004 99.47V30.769999999999996H360.1700000000001Q367.07000000000005 30.769999999999996 372.07000000000005 33.669999999999995Q377.07000000000005 36.56999999999999 379.82000000000005 41.72Q382.57000000000005 46.87 382.57000000000005 53.769999999999996Q382.57000000000005 60.669999999999995 379.77000000000004 65.92Q376.97 71.17 371.87 74.07Q366.77000000000004 76.97 359.87000000000006 76.97H333.87000000000006V99.47ZM333.87000000000006 62.47H354.97Q359.37000000000006 62.47 361.62000000000006 60.22Q363.87000000000006 57.97 363.87000000000006 53.87Q363.87000000000006 51.06999999999999 362.87000000000006 49.169999999999995Q361.87000000000006 47.269999999999996 359.9200000000001 46.269999999999996Q357.97 45.269999999999996 354.97 45.269999999999996H333.87000000000006Z" fill="#ffffff"/>
<path d="M378.97 99.47 408.77000000000004 30.769999999999996H430.77000000000004L460.6700000000001 99.47H440.07000000000005L435.37000000000006 87.97H403.27000000000004L398.57000000000005 99.47ZM408.77000000000004 73.87H429.77000000000004L424.1700000000001 59.669999999999995Q423.77000000000004 58.56999999999999 423.1700000000001 56.919999999999995Q422.57000000000005 55.269999999999996 421.9200000000001 53.37Q421.27000000000004 51.47 420.6700000000001 49.67Q420.07000000000005 47.87 419.6700000000001 46.769999999999996H418.97Q418.37000000000006 48.56999999999999 417.5200000000001 51.019999999999996Q416.6700000000001 53.47 415.87000000000006 55.769999999999996Q415.07000000000005 58.06999999999999 414.47 59.669999999999995Z" fill="#ffffff"/>
<path d="M468.77000000000004 99.47V30.769999999999996H517.27Q524.87 30.769999999999996 529.87 33.72Q534.87 36.669999999999995 537.37 41.669999999999995Q539.87 46.669999999999995 539.87 52.669999999999995Q539.87 59.269999999999996 536.8199999999999 64.52Q533.77 69.77 527.87 72.77L541.87 99.47H520.37L508.97 75.97H487.87000000000006V99.47ZM487.87000000000006 61.769999999999996H512.27Q515.97 61.769999999999996 518.1700000000001 59.47Q520.37 57.169999999999995 520.37 53.169999999999995Q520.37 50.669999999999995 519.37 48.86999999999999Q518.37 47.06999999999999 516.5699999999999 46.06999999999999Q514.77 45.06999999999999 512.27 45.06999999999999H487.87000000000006Z" fill="#ffffff"/>
<path d="M551.97 99.47V30.769999999999996H616.17V45.269999999999996H571.07V57.47H610.47V71.67H571.07V84.87H616.87V99.47Z" fill="#ffffff"/>
<path d="M649.158 99.47V30.769999999999996H694.558Q701.458 30.769999999999996 706.458 33.669999999999995Q711.458 36.56999999999999 714.208 41.72Q716.958 46.87 716.958 53.769999999999996Q716.958 60.669999999999995 714.158 65.92Q711.3580000000001 71.17 706.258 74.07Q701.158 76.97 694.258 76.97H668.258V99.47ZM668.258 62.47H689.3580000000001Q693.758 62.47 696.008 60.22Q698.258 57.97 698.258 53.87Q698.258 51.06999999999999 697.258 49.169999999999995Q696.258 47.269999999999996 694.308 46.269999999999996Q692.3580000000001 45.269999999999996 689.3580000000001 45.269999999999996H668.258Z" fill="#8fa1ff"/>
<path d="M726.258 99.47V30.769999999999996H790.458V45.269999999999996H745.3580000000001V57.47H784.758V71.67H745.3580000000001V84.87H791.158V99.47Z" fill="#8fa1ff"/>
<path d="M803.258 99.47V30.769999999999996H848.658Q855.558 30.769999999999996 860.558 33.669999999999995Q865.558 36.56999999999999 868.308 41.72Q871.058 46.87 871.058 53.769999999999996Q871.058 60.669999999999995 868.258 65.92Q865.4580000000001 71.17 860.3580000000001 74.07Q855.258 76.97 848.3580000000001 76.97H822.3580000000001V99.47ZM822.3580000000001 62.47H843.4580000000001Q847.8580000000001 62.47 850.1080000000001 60.22Q852.3580000000001 57.97 852.3580000000001 53.87Q852.3580000000001 51.06999999999999 851.3580000000001 49.169999999999995Q850.3580000000001 47.269999999999996 848.4080000000001 46.269999999999996Q846.4580000000001 45.269999999999996 843.4580000000001 45.269999999999996H822.3580000000001Z" fill="#8fa1ff"/>
<path d="M899.258 99.47V46.269999999999996H873.158V30.769999999999996H944.3580000000001V46.269999999999996H918.3580000000001V99.47Z" fill="#8fa1ff"/>
<path d="M953.9580000000001 99.47V30.769999999999996H973.0580000000001V99.47Z" fill="#8fa1ff"/>
<path d="M988.058 99.47V30.769999999999996H1021.658Q1033.558 30.769999999999996 1042.008 34.56999999999999Q1050.458 38.37 1054.958 46.019999999999996Q1059.458 53.669999999999995 1059.458 65.07Q1059.458 76.47 1054.958 84.12Q1050.458 91.77 1042.008 95.62Q1033.558 99.47 1021.658 99.47ZM1007.158 84.87H1020.958Q1025.358 84.87 1028.858 83.67Q1032.358 82.47 1034.808 80.17Q1037.258 77.87 1038.508 74.47Q1039.758 71.07 1039.758 66.77V63.47Q1039.758 59.06999999999999 1038.508 55.72Q1037.258 52.37 1034.808 50.019999999999996Q1032.358 47.669999999999995 1028.858 46.47Q1025.358 45.269999999999996 1020.958 45.269999999999996H1007.158Z" fill="#8fa1ff"/>
<path d="M1071.558 99.47V30.769999999999996H1135.758V45.269999999999996H1090.6580000000001V57.47H1130.058V71.67H1090.6580000000001V84.87H1136.458V99.47Z" fill="#8fa1ff"/>
</svg>
